<?xml version="1.0" standalone="no"?>
<!DOCTYPE svg PUBLIC "-//W3C//DTD SVG 20010904//EN"
 "http://www.w3.org/TR/2001/REC-SVG-20010904/DTD/svg10.dtd">
<svg version="1.0" xmlns="http://www.w3.org/2000/svg"
 width="1408.000000pt" height="1408.000000pt" viewBox="0 0 1408.000000 1408.000000"
 preserveAspectRatio="xMidYMid meet">
<metadata>
Created by potrace 1.14, written by Peter Selinger 2001-2017
</metadata>
<g transform="translate(0.000000,1408.000000) scale(0.100000,-0.100000)"
fill="#000000" stroke="none">
<path d="M6874 10870 c-3 -2 -26 -5 -52 -6 -26 -1 -47 -3 -47 -4 0 -1 -12 -4
-27 -6 -16 -2 -40 -6 -55 -8 -16 -2 -28 -5 -28 -6 0 -1 -9 -3 -19 -5 -42 -8
-152 -39 -161 -45 -5 -4 -23 -10 -40 -14 -34 -9 -152 -61 -210 -93 -22 -13
-52 -28 -67 -34 -16 -6 -28 -15 -28 -20 0 -5 -5 -9 -11 -9 -10 0 -91 -53 -115
-75 -7 -5 -24 -19 -40 -30 -15 -11 -59 -50 -98 -86 -112 -105 -4750 -4749
-4787 -4794 -59 -70 -94 -118 -135 -185 -21 -36 -41 -67 -44 -70 -4 -3 -14
-23 -24 -45 -10 -22 -30 -65 -45 -95 -14 -30 -26 -57 -27 -60 0 -3 -6 -17 -12
-32 -16 -40 -60 -189 -67 -227 -3 -19 -8 -37 -10 -41 -3 -4 -7 -27 -9 -51 -3
-24 -8 -60 -11 -79 -9 -47 -14 -310 -6 -310 3 0 7 -24 7 -53 1 -28 5 -70 9
-92 3 -22 8 -49 10 -60 2 -11 11 -49 20 -85 9 -36 17 -69 18 -75 2 -5 6 -15
10 -22 4 -6 8 -23 9 -37 1 -14 5 -26 9 -26 4 0 10 -11 13 -25 4 -14 17 -49 30
-78 13 -28 27 -62 31 -75 3 -12 11 -22 16 -22 5 0 9 -9 9 -19 0 -11 3 -21 8
-23 4 -1 17 -21 29 -43 78 -142 275 -367 418 -476 64 -49 201 -139 212 -139 3
0 14 -7 24 -16 9 -8 23 -17 31 -18 7 -2 42 -17 78 -33 125 -58 274 -103 425
-128 105 -18 317 -26 309 -13 -4 6 0 7 12 1 11 -5 28 -8 39 -7 105 11 132 14
163 19 107 17 269 62 340 93 21 9 39 16 42 17 3 0 31 13 64 28 32 15 62 27 67
27 5 0 9 4 9 8 0 4 12 13 28 20 97 42 246 157 407 314 77 76 143 138 148 138
4 0 7 4 7 8 0 11 141 152 151 152 5 0 9 4 9 8 0 10 525 535 539 540 6 2 11 7
11 11 0 11 2568 2576 2580 2576 6 0 815 -803 1798 -1785 983 -982 1797 -1793
1810 -1803 12 -9 27 -17 32 -17 6 0 10 -4 10 -8 0 -4 13 -16 30 -25 16 -10 35
-23 42 -30 18 -17 118 -77 128 -77 5 0 10 -3 12 -7 6 -14 231 -113 255 -113 7
0 13 -5 13 -12 0 -6 3 -9 6 -6 3 4 36 -2 72 -13 82 -23 209 -48 281 -55 29 -2
57 -7 62 -10 5 -3 9 0 9 7 0 8 4 8 13 2 12 -10 203 -10 262 0 17 3 55 8 85 12
30 4 82 14 115 22 33 8 65 16 70 17 6 1 16 5 23 9 6 5 12 6 12 3 0 -5 81 22
135 45 17 7 32 13 36 13 19 3 177 86 244 128 166 104 342 267 453 417 31 42
60 78 64 79 4 2 6 7 3 12 -3 4 2 13 10 20 8 7 15 19 15 26 0 8 4 14 9 14 5 0
13 10 17 23 3 12 14 33 24 47 9 14 23 42 31 62 7 21 17 38 22 38 5 0 7 7 3 15
-3 8 -2 15 3 15 4 0 13 19 20 42 7 24 19 57 26 73 15 35 52 173 61 229 3 21 8
48 10 60 17 85 23 302 11 421 -9 85 -13 106 -38 215 -25 108 -24 105 -49 170
-12 30 -23 63 -25 74 -2 10 -9 23 -14 30 -5 6 -10 14 -10 19 -1 14 -73 152
-102 195 -16 24 -29 45 -29 48 0 9 -87 124 -140 184 -39 45 -2330 2338 -2330
2333 0 -3 -11 8 -24 24 -32 38 -136 143 -136 137 0 -2 -15 13 -34 33 -40 44
-2240 2242 -2292 2291 -20 17 -39 32 -44 32 -4 0 -13 6 -19 13 -22 28 -183
129 -280 178 -91 45 -276 114 -340 126 -14 3 -30 6 -36 7 -71 16 -124 27 -131
25 -5 -1 -11 0 -14 1 -25 10 -407 20 -416 10z"/>
<path d="M6867 5024 c-1 -1 -24 -4 -52 -7 -61 -7 -107 -15 -160 -29 -22 -5
-41 -10 -42 -9 -7 1 -141 -52 -184 -74 -27 -14 -52 -25 -55 -24 -4 0 -10 -3
-13 -8 -3 -5 -24 -20 -46 -33 -22 -13 -49 -32 -59 -42 -11 -10 -23 -18 -27
-18 -4 0 -35 -26 -68 -58 -34 -32 -63 -56 -66 -54 -3 3 -5 1 -5 -5 0 -5 -18
-29 -40 -54 -22 -24 -40 -47 -40 -50 0 -3 -11 -19 -24 -34 -13 -15 -30 -40
-37 -54 -7 -14 -22 -39 -32 -54 -10 -15 -20 -33 -21 -40 -1 -7 -7 -22 -14 -34
-22 -40 -72 -185 -67 -193 3 -5 1 -11 -4 -14 -24 -16 -43 -265 -31 -426 3 -36
34 -187 44 -215 44 -116 63 -159 92 -212 19 -35 34 -65 34 -68 0 -3 5 -12 12
-19 7 -7 22 -25 33 -41 47 -66 110 -133 201 -216 74 -66 255 -170 349 -199 22
-7 45 -15 50 -19 6 -3 15 -6 20 -7 6 -1 29 -7 53 -13 24 -7 58 -14 75 -16 18
-2 44 -6 59 -10 15 -3 80 -7 143 -9 63 -1 118 -6 121 -9 4 -4 15 -2 25 3 10 6
20 7 22 3 12 -19 509 -5 542 15 6 4 21 8 35 10 28 4 116 33 175 58 22 9 41 16
42 16 4 -1 117 67 130 78 7 5 15 10 19 10 10 0 144 109 183 150 55 56 135 160
174 226 37 61 68 128 66 140 0 4 3 10 8 13 14 10 63 176 80 266 14 79 8 382
-9 410 -3 6 -9 28 -13 50 -10 57 -53 184 -76 223 -10 18 -19 38 -19 43 0 6
-13 30 -30 54 -16 24 -30 46 -30 50 0 3 -5 11 -10 18 -38 44 -50 61 -50 67 0
14 -159 168 -225 217 -119 90 -333 187 -452 207 -15 2 -28 5 -28 6 0 7 -174
20 -334 24 -84 3 -156 7 -158 10 -3 3 -14 1 -24 -5 -11 -5 -19 -6 -19 -2 0 7
-216 13 -223 7z"/>
</g>
</svg>
